# xmcd
#
# Track frame offsets:
#	180
#	12948
#	26366
#	39034
#	58302
#	72619
#	86203
#	98861
#	113596
#	125482
#	139625
#	152939
#	166635
#	179111
#	193799
#	204503
#	217827
#	233688
#
# Disc length: 3290 seconds
#
# Revision: 1
# Processed by: cddbd v1.5.2PL0 Copyright (c) Steve Scherf et al.
# Submitted via: audiograbber 1.83.01
#
DISCID=f60cd812
DTITLE=Various Artist - Great Voices Of Entertainment -CD 04
DYEAR=1900
DGENRE=Swing
TTITLE0=Fred Astaire - New Sun In The Sky
TTITLE1=Fred Astaire - My One And Only
TTITLE2=Bing Crosby - Now It Can Be Told
TTITLE3=Judy Garland - Sweet Sixteen
TTITLE4=Frank Sinatra - I Don't Stand A Ghost Of A Chance With You
TTITLE5=Bing Crosby - Ain't Got Nobody
TTITLE6=Judy Garland - The Trolley Song
TTITLE7=Doris Day - We'll Be Together Again
TTITLE8=Four Knights - Farther Along
TTITLE9=Perry Como - Till The End Of Time
TTITLE10=Mel Tormé - What Is This Thing Called Love
TTITLE11=Doris Day - Come Ton Baby, Do!
TTITLE12=Dean Martin - All Of Me
TTITLE13=Frank Sinatra - The Things We Did Last Summer
TTITLE14=Four Knights - Ain't Gwine To Study War No More
TTITLE15=Mel Tormé - Little White Lies
TTITLE16=Perry Como - Bali Ha'i
TTITLE17=Dean Martin - In The Cool, Cool, Cool Of The Evening
EXTD=CD 4 von 10
EXTT0=
EXTT1=
EXTT2=
EXTT3=
EXTT4=
EXTT5=
EXTT6=
EXTT7=
EXTT8=
EXTT9=
EXTT10=
EXTT11=
EXTT12=
EXTT13=
EXTT14=
EXTT15=
EXTT16=
EXTT17=
PLAYORDER=
